<?xml version="1.0" standalone="no"?><!DOCTYPE svg PUBLIC "-//W3C//DTD SVG 1.1//EN" "http://www.w3.org/Graphics/SVG/1.1/DTD/svg11.dtd"><svg t="1581420866298" class="icon" viewBox="0 0 1024 1024" version="1.1" xmlns="http://www.w3.org/2000/svg" p-id="3681" xmlns:xlink="http://www.w3.org/1999/xlink" width="200" height="200"><defs><style type="text/css"></style></defs><path d="M466.8416 188.8256zM585.4208 181.5552c1.1264 1.4336 2.4576 2.7648 3.4816 4.3008-1.1264-1.536-2.3552-2.8672-3.4816-4.3008zM566.272 164.864a71.68 71.68 0 0 1 15.872 12.8 71.68 71.68 0 0 0-15.872-12.8zM443.6992 234.8032l-38.5024 78.5408a73.3184 73.3184 0 0 1-3.7888 6.7584 70.7584 70.7584 0 0 0 3.7888-6.7584zM752.7424 176.64a74.1376 74.1376 0 0 1 19.0464 5.0176 74.1376 74.1376 0 0 0-19.0464-5.0176z" fill="#FFBA00" p-id="3682"></path><path d="M837.7344 370.9952l-129.4336-18.432a73.5232 73.5232 0 0 1-55.5008-40.0384l-55.5008-111.5136a125.44 125.44 0 0 1-206.848 133.12 73.4208 73.4208 0 0 1-40.448 20.48l-129.3312 18.432a73.5232 73.5232 0 0 0-40.3456 125.44l93.9008 90.9312a73.5232 73.5232 0 0 1 21.2992 65.024l-21.6064 129.024A73.5232 73.5232 0 0 0 380.8256 860.16l115.6096-61.44a73.5232 73.5232 0 0 1 68.4032 0l115.9168 60.5184a73.5232 73.5232 0 0 0 106.3936-77.824l-22.528-128.8192a73.5232 73.5232 0 0 1 20.48-65.1264l93.3888-91.5456a73.5232 73.5232 0 0 0-40.7552-124.928zM529.408 672.8704A78.9504 78.9504 0 0 1 450.56 593.92a18.3296 18.3296 0 1 1 36.7616 0 42.0864 42.0864 0 0 0 84.1728 0 18.3296 18.3296 0 1 1 36.7616 0 78.9504 78.9504 0 0 1-78.848 78.9504zM397.1072 326.144l2.6624-3.4816z" fill="#FFBA00" p-id="3683"></path><path d="M589.824 575.5904A18.3296 18.3296 0 0 0 571.4944 593.92a42.0864 42.0864 0 0 1-84.1728 0A18.3296 18.3296 0 1 0 450.56 593.92a78.848 78.848 0 0 0 157.696 0 18.3296 18.3296 0 0 0-18.432-18.3296z" fill="#FFFFFF" p-id="3684"></path><path d="M597.2992 201.0112l-2.7648-5.5296a76.9024 76.9024 0 0 0-5.632-9.6256 76.8 76.8 0 0 1 5.632 9.6256zM466.8416 188.8256a76.1856 76.1856 0 0 0-4.096 7.0656l-19.0464 38.912 19.0464-38.912a76.288 76.288 0 0 1 4.096-7.0656zM399.36 322.6624l1.6384-2.56zM518.656 155.4432A72.192 72.192 0 0 0 470.016 184.32a72.192 72.192 0 0 1 48.64-28.8768zM582.144 177.664c1.1264 1.2288 2.1504 2.6624 3.1744 3.9936-1.024-1.4336-1.6384-2.8672-3.1744-3.9936zM390.4512 333.6192a73.1136 73.1136 0 0 0 6.656-7.4752 75.6736 75.6736 0 0 1-6.656 7.4752z" fill="#FFFFFF" p-id="3685"></path><path d="M605.696 245.76a125.0304 125.0304 0 0 0-8.3968-44.9536l-2.7648-5.5296a76.8 76.8 0 0 0-5.632-9.6256c-1.1264-1.536-2.3552-2.8672-3.4816-4.3008s-2.048-2.7648-3.1744-3.9936a71.68 71.68 0 0 0-15.9744-12.4928 72.2944 72.2944 0 0 0-8.9088-4.4032 74.1376 74.1376 0 0 0-19.0464-5.0176 75.4688 75.4688 0 0 0-19.6608 0A72.192 72.192 0 0 0 470.016 184.32c-1.1264 1.536-2.1504 3.072-3.1744 4.7104a76.288 76.288 0 0 0-4.096 7.0656l-19.0464 38.912-38.5024 78.336a70.7584 70.7584 0 0 1-3.7888 6.7584l-1.6384 2.56-2.6624 3.4816a73.1136 73.1136 0 0 1-6.656 7.4752 125.44 125.44 0 0 0 215.04-87.6544z" fill="#FFBA00" p-id="3686"></path><path d="M605.696 245.76a125.0304 125.0304 0 0 0-8.3968-44.9536l-2.7648-5.5296a76.8 76.8 0 0 0-5.632-9.6256c-1.1264-1.536-2.3552-2.8672-3.4816-4.3008s-2.048-2.7648-3.1744-3.9936a71.68 71.68 0 0 0-15.9744-12.4928 72.2944 72.2944 0 0 0-8.9088-4.4032 74.1376 74.1376 0 0 0-19.0464-5.0176 75.4688 75.4688 0 0 0-19.6608 0A72.192 72.192 0 0 0 470.016 184.32c-1.1264 1.536-2.1504 3.072-3.1744 4.7104a76.288 76.288 0 0 0-4.096 7.0656l-19.0464 38.912-38.5024 78.336a70.7584 70.7584 0 0 1-3.7888 6.7584l-1.6384 2.56-2.6624 3.4816a73.1136 73.1136 0 0 1-6.656 7.4752 125.44 125.44 0 0 0 215.04-87.6544z" fill="#FEC744" p-id="3687"></path></svg>