<?xml version="1.0" standalone="no"?><!DOCTYPE svg PUBLIC "-//W3C//DTD SVG 1.1//EN" "http://www.w3.org/Graphics/SVG/1.1/DTD/svg11.dtd"><svg t="1581422752155" class="icon" viewBox="0 0 1024 1024" version="1.1" xmlns="http://www.w3.org/2000/svg" p-id="8297" xmlns:xlink="http://www.w3.org/1999/xlink" width="200" height="200"><defs><style type="text/css"></style></defs><path d="M341.33312 29.141528v965.71673C142.463911 924.586302 0 734.933087 0 511.999893 0 289.066699 142.463911 99.413485 341.33312 29.141528z" fill="#000000" p-id="8298"></path><path d="M682.66624 29.141528v965.71673A511.167681 511.167681 0 0 1 511.99968 1023.999573c-59.839963 0-117.290593-10.261327-170.66656-29.141315V29.141528A511.167681 511.167681 0 0 1 511.99968 0.000213c59.839963 0 117.290593 10.261327 170.66656 29.141315z" fill="#E94B35" p-id="8299"></path><path d="M682.66624 994.858258V29.141528C881.535449 99.413485 1023.99936 289.066699 1023.99936 511.999893c0 222.933194-142.463911 412.586409-341.33312 482.858365z" fill="#1FCE6D" p-id="8300"></path><path d="M340.266454 336.789336A244.650514 244.650514 0 0 0 266.6665 511.999893c0 135.487915 109.845265 245.33318 245.33318 245.33318S757.33286 647.487809 757.33286 511.999893c0-66.773292-26.85865-129.386586-73.599954-175.210557a31.99998 31.99998 0 0 0-44.799972 45.717305A180.650554 180.650554 0 0 1 693.3329 511.999893a181.33322 181.33322 0 1 1-362.66644 0c0-49.407969 19.818654-95.573274 54.399966-129.493252a31.99998 31.99998 0 0 0-44.799972-45.717305z" fill="#FFFFFF" p-id="8301"></path><path d="M383.99976 501.333233a159.9999 127.99992 90 1 0 255.99984 0 159.9999 127.99992 90 1 0-255.99984 0Z" fill="#FFFFFF" p-id="8302"></path></svg>