<?xml version="1.0" standalone="no"?><!DOCTYPE svg PUBLIC "-//W3C//DTD SVG 1.1//EN" "http://www.w3.org/Graphics/SVG/1.1/DTD/svg11.dtd"><svg t="1581478267023" class="icon" viewBox="0 0 1024 1024" version="1.1" xmlns="http://www.w3.org/2000/svg" p-id="4801" xmlns:xlink="http://www.w3.org/1999/xlink" width="200" height="200"><defs><style type="text/css"></style></defs><path d="M963.764706 301.176471V150.588235c0-33.129412-27.105882-60.235294-60.235294-60.235294H60.235294C27.105882 90.352941 0 117.458824 0 150.588235v722.82353c0 33.129412 27.105882 60.235294 60.235294 60.235294h843.294118c33.129412 0 60.235294-27.105882 60.235294-60.235294v-150.588236h-60.235294v120.470589c0 18.070588-12.047059 30.117647-30.117647 30.117647H90.352941c-18.070588 0-30.117647-12.047059-30.117647-30.117647V180.705882c0-18.070588 12.047059-30.117647 30.117647-30.117647h783.058824c18.070588 0 30.117647 12.047059 30.117647 30.117647v120.470589h60.235294z" p-id="4802" fill="#ffffff"></path><path d="M963.764706 361.411765H602.352941c-33.129412 0-60.235294 27.105882-60.235294 60.235294v180.705882c0 33.129412 27.105882 60.235294 60.235294 60.235294h361.411765c33.129412 0 60.235294-27.105882 60.235294-60.235294v-180.705882c0-33.129412-27.105882-60.235294-60.235294-60.235294z m0 210.823529c0 18.070588-12.047059 30.117647-30.117647 30.117647H632.470588c-18.070588 0-30.117647-12.047059-30.117647-30.117647v-120.470588c0-18.070588 12.047059-30.117647 30.117647-30.117647h301.176471c18.070588 0 30.117647 12.047059 30.117647 30.117647v120.470588z" p-id="4803" fill="#ffffff"></path></svg>