<?xml version="1.0" standalone="no"?><!DOCTYPE svg PUBLIC "-//W3C//DTD SVG 1.1//EN" "http://www.w3.org/Graphics/SVG/1.1/DTD/svg11.dtd"><svg t="1581230597621" class="icon" viewBox="0 0 1024 1024" version="1.1" xmlns="http://www.w3.org/2000/svg" p-id="2131" xmlns:xlink="http://www.w3.org/1999/xlink" width="200" height="200"><defs><style type="text/css"></style></defs><path d="M1010.100627 940.224384l-191.906195-188.631579c159.91046-182.150566 150.359494-453.87555-25.582945-620.13058C613.462653-44.343771 319.156457-44.343771 136.801227 134.668621c-179.148834 172.5996-182.35523 457.081945-9.550966 632.887941l9.550966 9.619188c166.323251 159.842239 425.495536 179.012392 610.988941 41.614923l191.974417 188.563358c9.550966 9.550966 22.376549 15.963757 35.133911 15.963757a51.370553 51.370553 0 0 0 35.202131-15.963757c16.031979-16.031979 19.238374-47.959494 0-67.129647zM98.460921 454.353098c3.138175-198.250766 166.323251-358.024783 367.848634-358.024784s364.642239 159.774017 367.848634 358.024784c-3.206396 201.32072-169.529647 361.162958-367.848634 357.956562A361.708728 361.708728 0 0 1 98.460921 454.353098z" p-id="2132"></path></svg>