<?xml version="1.0" standalone="no"?><!DOCTYPE svg PUBLIC "-//W3C//DTD SVG 1.1//EN" "http://www.w3.org/Graphics/SVG/1.1/DTD/svg11.dtd"><svg t="1581420857102" class="icon" viewBox="0 0 1024 1024" version="1.1" xmlns="http://www.w3.org/2000/svg" p-id="2927" xmlns:xlink="http://www.w3.org/1999/xlink" width="200" height="200"><defs><style type="text/css"></style></defs><path d="M512 938.666667C277.333333 938.666667 85.333333 746.666667 85.333333 512S277.333333 85.333333 512 85.333333s426.666667 192 426.666667 426.666667c0 98.133333-34.133333 192-93.866667 264.533333l25.6 89.6c4.266667 8.533333 0 21.333333-8.533333 29.866667-8.533333 8.533333-17.066667 8.533333-29.866667 8.533333l-98.133333-25.6c-64 38.4-140.8 59.733333-221.866667 59.733334z m0-793.6c-204.8 0-366.933333 166.4-366.933333 366.933333s166.4 366.933333 366.933333 366.933333c72.533333 0 140.8-21.333333 200.533333-59.733333 8.533333-4.266667 17.066667-4.266667 25.6-4.266667l59.733334 17.066667-12.8-51.2c-4.266667-8.533333 0-21.333333 4.266666-25.6 59.733333-68.266667 89.6-153.6 89.6-238.933333 0-209.066667-162.133333-371.2-366.933333-371.2z" fill="#6A3906" p-id="2928"></path><path d="M755.2 750.933333c4.266667-8.533333 4.266667-25.6 12.8-42.666666 17.066667-59.733333 34.133333-85.333333 42.666667-119.466667 0 0 17.066667-51.2 8.533333-123.733333-17.066667-132.266667-123.733333-238.933333-251.733333-260.266667C358.4 170.666667 179.2 349.866667 213.333333 558.933333c21.333333 132.266667 128 234.666667 260.266667 251.733334 21.333333 4.266667 68.266667 0 119.466667-8.533334 42.666667-8.533333 81.066667-17.066667 106.666666-25.6 8.533333 0 17.066667-4.266667 25.6-4.266666 17.066667 0 25.6 0 38.4 4.266666-8.533333-4.266667-8.533333-17.066667-8.533333-25.6z" fill="#F5CB2B" p-id="2929"></path><path d="M362.666667 507.733333m-34.133334 0a34.133333 34.133333 0 1 0 68.266667 0 34.133333 34.133333 0 1 0-68.266667 0Z" fill="#6A3906" p-id="2930"></path><path d="M512 512m-34.133333 0a34.133333 34.133333 0 1 0 68.266666 0 34.133333 34.133333 0 1 0-68.266666 0Z" fill="#6A3906" p-id="2931"></path><path d="M661.333333 516.266667m-34.133333 0a34.133333 34.133333 0 1 0 68.266667 0 34.133333 34.133333 0 1 0-68.266667 0Z" fill="#6A3906" p-id="2932"></path></svg>