<?xml version="1.0" standalone="no"?><!DOCTYPE svg PUBLIC "-//W3C//DTD SVG 1.1//EN" "http://www.w3.org/Graphics/SVG/1.1/DTD/svg11.dtd"><svg t="1581478337792" class="icon" viewBox="0 0 1024 1024" version="1.1" xmlns="http://www.w3.org/2000/svg" p-id="6528" xmlns:xlink="http://www.w3.org/1999/xlink" width="200" height="200"><defs><style type="text/css"></style></defs><path d="M812.032 933.888H194.048c-69.632 0-125.952-56.32-125.952-125.952V189.952c0-69.632 56.32-125.952 125.952-125.952h617.984c69.632 0 125.952 56.32 125.952 125.952v617.984c0 69.632-56.832 125.952-125.952 125.952zM194.048 115.2c-41.472 0-74.752 33.792-74.752 74.752v617.984c0 41.472 33.792 74.752 74.752 74.752h617.984c41.472 0 74.752-33.792 74.752-74.752V189.952c0-41.472-33.792-74.752-74.752-74.752H194.048z" fill="#ffffff" p-id="6529"></path><path d="M795.648 690.688H200.192c-13.312 0-24.064-10.752-24.064-23.552v-89.6c0-5.632 2.048-10.752 5.12-14.848l181.248-223.744c8.192-9.728 22.528-11.776 32.768-4.608l190.464 133.632L778.752 286.72c7.168-6.656 17.408-8.192 26.112-4.608 8.704 3.584 14.848 12.288 14.848 22.016v363.008c0 13.312-10.752 23.552-24.064 23.552z m-571.392-47.104h547.328V359.424l-166.4 156.672c-8.192 7.68-20.992 8.704-30.72 2.048L386.048 386.56l-161.792 199.68v57.344z" fill="#ffffff" p-id="6530"></path><path d="M403.456 508.928m-33.792 0a33.792 33.792 0 1 0 67.584 0 33.792 33.792 0 1 0-67.584 0Z" fill="#ffffff" p-id="6531"></path></svg>