<?xml version="1.0" standalone="no"?><!DOCTYPE svg PUBLIC "-//W3C//DTD SVG 1.1//EN" "http://www.w3.org/Graphics/SVG/1.1/DTD/svg11.dtd"><svg t="1581424474940" class="icon" viewBox="0 0 1024 1024" version="1.1" xmlns="http://www.w3.org/2000/svg" p-id="2884" xmlns:xlink="http://www.w3.org/1999/xlink" width="200" height="200"><defs><style type="text/css"></style></defs><path d="M977.408 947.712l-304.128-814.08V74.752c0-7.68-6.144-13.312-13.312-13.312h-261.12c-7.68 0-13.312 6.144-13.312 13.312V133.12L81.408 947.2c-8.704 23.552 8.704 48.64 33.792 48.64h208.384c16.384 0 30.72-11.264 34.816-27.136l135.68-522.24c9.216-35.84 60.416-35.84 69.632 0l136.192 522.752c4.096 15.872 18.432 27.136 34.816 27.136h208.384c25.6 0 43.008-25.088 34.304-48.64z" fill="#FFFF00" p-id="2885"></path><path d="M954.88 909.824L651.776 97.28V40.96c0-14.336-11.776-26.112-26.112-26.112h-261.12c-14.336 0-26.112 11.776-26.112 26.112v56.32L35.328 909.824c-5.632 14.848-3.584 31.744 5.632 44.544 9.216 12.8 24.064 20.992 39.936 20.992h208.384c22.016 0 41.472-14.848 47.104-36.352L472.064 415.744c3.584-12.8 13.824-17.92 23.04-17.92s19.456 4.608 23.04 17.92l136.192 522.752c5.632 21.504 24.576 36.352 47.104 36.352h208.384c15.872 0 30.72-7.68 39.936-20.992s10.752-29.184 5.12-44.032zM626.688 40.96v46.08h-47.104V39.936h46.08c0.512 0 1.024 0.512 1.024 1.024z m-190.976 46.592V39.936h47.104V87.04h-47.104z m71.68-47.616h47.104V87.04h-47.104V39.936zM363.52 40.96c0-0.512 0.512-1.024 1.024-1.024h46.592V87.04H363.52V40.96zM311.808 932.352c-2.56 10.24-12.288 17.92-23.04 17.92H80.384c-7.68 0-14.848-3.584-19.456-10.24s-5.632-14.336-2.56-22.016l19.456-51.712h251.392l-17.408 66.048zM495.104 373.248c-22.528 0-41.472 14.336-47.104 36.352l-112.64 432.128H87.04L359.424 112.128h271.36l272.384 729.6h-248.832l-112.64-432.128c-5.12-21.504-24.064-36.352-46.592-36.352z m434.176 566.784c-4.608 6.656-11.776 10.24-19.456 10.24H701.44c-10.752 0-19.968-7.168-23.04-17.92l-17.408-66.048h251.392l19.456 51.712c2.56 7.68 2.048 15.36-2.56 22.016z" fill="#221E1F" p-id="2886"></path></svg>