<?xml version="1.0" standalone="no"?><!DOCTYPE svg PUBLIC "-//W3C//DTD SVG 1.1//EN" "http://www.w3.org/Graphics/SVG/1.1/DTD/svg11.dtd"><svg t="1581075232020" class="icon" viewBox="0 0 1024 1024" version="1.1" xmlns="http://www.w3.org/2000/svg" p-id="2356" xmlns:xlink="http://www.w3.org/1999/xlink" width="200" height="200"><defs><style type="text/css"></style></defs><path d="M256.283967 70.735018l139.866515 180.601264 2.338255 3.108804c6.217608 8.820899 10.894118 18.679431 13.739932 28.563546 3.370771 11.664667 3.90289 23.594371 2.095731 36.056194-2.095731 12.195763-5.978155 23.354917-11.95631 33.478486l-1.541099 2.072195c-5.713119 9.326413-13.232372 17.642822-22.053272 24.391527l-2.869351 1.301645-67.966974 49.553603c-3.90596 9.857509-9.618055 31.406291 9.591449 58.109466 30.104645 43.335994 63.317071 83.563184 100.143814 120.416534 37.384445 36.826743 77.080539 70.039169 119.885438 100.143814 26.729781 18.679431 48.278563 13.497409 58.640562 9.086959l50.855248-70.308299 0 0c7.2798-9.881045 15.835663-17.904789 25.959232-24.149003 10.361999-5.951549 21.522176-10.126638 33.478486-11.664667l1.807159-0.26606c11.664667-1.541099 23.089881-0.77055 33.982976 2.335185l2.076288 0.531096c10.385535 3.111874 20.509103 8.027837 29.596062 15.307637l0-0.26606 180.598194 140.637064 2.842745 2.072195c9.090029 7.782244 16.341177 17.138332 21.548782 27.234271l0-0.239454c5.951549 11.398608 9.063423 23.860431 10.096962 37.09178 0.531096 13.232372-1.807159 25.693172-6.748704 37.888935l0.531096 0c-5.177929 11.664667-12.461823 22.319331-22.584368 31.406291-11.398608 10.894118-25.666566 22.053272-43.070958 32.68133l-1.807159 1.036609c-16.872273 9.591449-36.32123 19.210527-59.171658 26.463722-99.107205 32.94739-204.963115 26.995841-306.701241-6.748704-107.423615-35.790134-210.43678-102.747105-294.744931-187.346899-85.101213-84.839247-152.058185-187.320293-187.879018-295.276027-33.982976-101.71152-39.696094-207.567429-6.748704-306.701241 8.316409-23.860431 17.403369-43.841507 28.031427-60.712757l0-0.50449 0 0c10.388605-16.606213 21.282722-31.406291 31.91078-43.097564 9.618055-9.591449 20.246113-17.111726 31.671327-22.053272l3.374864-0.77055c10.628058-4.148483 22.557762-5.713119 34.488489-5.447059 12.995989 0.76748 25.959232 3.879354 37.118386 9.591449l2.072195 1.567705L256.283967 70.735018 256.283967 70.735018zM338.545506 296.479435 338.545506 296.479435 198.678992 115.903753c-1.036609-1.829671-2.842745-3.13234-4.649903-4.167926l-0.531096-0.239454c-2.069125-0.797156-4.676509-1.833765-6.748704-1.833765-2.842745 0-4.41045 0.531096-6.214539 0.531096l-1.039679 0.50449c-2.072195 0.797156-4.172019 2.338255-5.713119 4.14132-8.05035 8.319479-15.832594 18.176988-23.354917 31.143301l0 0c-7.785314 12.992919-15.062044 28.297486-21.282722 46.205345-27.76639 83.271542-22.053272 173.84949 6.751774 261.026992 32.17377 96.264461 92.886527 189.154058 170.20652 266.207991 77.080539 77.346599 169.970136 138.056286 266.234597 170.236196 87.708598 29.04143 177.728844 34.245965 261.030062 6.748704 17.373693-5.716188 32.17377-12.726859 44.63764-19.741623l1.538029-1.541099c12.726859-7.519254 23.354917-15.570627 31.143301-22.850427 1.829671-2.072195 3.105734-3.879354 4.14132-5.954619l0 0 0-0.26606c1.036609-1.564635 1.036609-4.14132 1.036609-6.745634 0-2.842745-0.50449-5.180999-1.541099-6.748704l0 0 0 0c-0.531096-2.072195-1.807159-3.108804-3.370771-4.41045l-1.305739-0.77055L729.049385 687.009919l0.531096 0-0.531096 0c-1.036609-1.301645-3.374864-2.338255-4.915963-2.869351l-0.531096 0c-1.807159-0.50449-4.145413-0.50449-6.217608-0.50449l-0.26606 0c-2.604314 0.50449-4.676509 1.036609-6.217608 2.072195l0 0c-1.567705 0.77055-3.374864 2.577708-4.942569 4.676509l0 0 0 0-55.000662 75.486228c-2.869351 4.41045-7.280824 8.316409-11.929704 11.691273-0.26606 0-64.884776 45.409213-143.240355-9.591449-46.975894-32.711006-90.551342-69.03019-129.476887-108.460224-40.22719-39.191604-76.017324-82.792635-108.72219-129.742946-55.000662-78.621639-9.090029-142.975319-9.090029-142.975319 2.338255-4.145413 5.712095-7.785314 9.857509-10.894118l74.476225-54.496172 2.87242-1.807159c1.538029-1.301645 2.573615-2.338255 3.610224-3.90596l0.797156-1.039679c1.27504-1.564635 1.807159-3.63683 2.311649-5.709025 0-2.842745 0-4.676509-0.50449-6.748704-0.531096-1.541099-1.036609-3.108804-2.338255-4.145413L338.545506 296.479435 338.545506 296.479435zM256.283967 71.266114 256.283967 71.266114l0-0.531096L256.283967 71.266114 256.283967 71.266114zM256.283967 70.735018 256.283967 70.735018l0 0.531096L256.283967 70.735018 256.283967 70.735018z" p-id="2357"></path></svg>